<?xml version="1.0" encoding="utf-8"?>
<!-- Generator: Adobe Illustrator 18.0.0, SVG Export Plug-In . SVG Version: 6.00 Build 0)  -->
<!DOCTYPE svg PUBLIC "-//W3C//DTD SVG 1.1//EN" "http://www.w3.org/Graphics/SVG/1.1/DTD/svg11.dtd">
<svg version="1.1"
	 id="Layer_1" xmlns:cc="http://creativecommons.org/ns#" xmlns:dc="http://purl.org/dc/elements/1.1/" xmlns:rdf="http://www.w3.org/1999/02/22-rdf-syntax-ns#"
	 xmlns="http://www.w3.org/2000/svg" xmlns:xlink="http://www.w3.org/1999/xlink" x="0px" y="0px" viewBox="0 0 408 408"
	 enable-background="new 0 0 408 408" xml:space="preserve">
<g transform="translate(0 -189.05)">
	<path fill="#257310" d="M204.7,590.8c22.1,0.3,40.4-17.3,40.9-39.4h-81.9C164.2,573.6,182.5,591.2,204.7,590.8L204.7,590.8z
		 M337.6,472.7V364.5c-1.1-60.1-43.5-111.4-102.3-123.8v-14.4c0-17.1-13.9-31-31-31s-31,13.9-31,31v13.4
		c-58.8,12.4-101.2,63.8-102.3,123.8v108.2l-40.9,39.4v19.7h347.6v-19.7L337.6,472.7z M296.7,492.4h-184V364.5
		c2.6-50.8,46-89.9,96.8-87.3c47.1,2.4,84.8,40.1,87.3,87.3V492.4z"/>
</g>
</svg>
