<?xml version="1.0" encoding="utf-8"?>
<!-- Generator: Adobe Illustrator 18.0.0, SVG Export Plug-In . SVG Version: 6.00 Build 0)  -->
<!DOCTYPE svg PUBLIC "-//W3C//DTD SVG 1.1//EN" "http://www.w3.org/Graphics/SVG/1.1/DTD/svg11.dtd">
<svg version="1.1"
	 id="Layer_1" xmlns:rdf="http://www.w3.org/1999/02/22-rdf-syntax-ns#" xmlns:cc="http://creativecommons.org/ns#" xmlns:dc="http://purl.org/dc/elements/1.1/"
	 xmlns="http://www.w3.org/2000/svg" xmlns:xlink="http://www.w3.org/1999/xlink" x="0px" y="0px" viewBox="4 3.3 400 400"
	 enable-background="new 4 3.3 400 400" xml:space="preserve">
<g>
	<path fill="#FFFFFF" d="M4,53.8c1.6,0,3.2,0.1,4.8,0.1c80.4,0,160.8,0,241.2,0c1.4,0,2.9,0,5.3,0c-3.1,3.4-5.6,6-8,8.6
		c-11.5,12.1-23,24.2-34.4,36.4c-1.5,1.6-3.1,2.1-5.3,2.1c-50.8-0.1-101.6,0-152.4,0c-1.4,0-2.7,0-4.3,0c0,84.5,0,168.6,0,253.2
		c1,0.1,2.2,0.2,3.3,0.2c82.5,0,165.1,0,247.6,0.1c3,0,3.7-0.9,3.7-3.8c-0.1-49.7,0-99.5-0.1-149.2c0-2.7,0.6-4.7,2.7-6.7
		c14.7-14.3,29.2-28.8,43.8-43.2c0.3-0.3,0.7-0.4,1.6-1c0,1.8,0,3.1,0,4.4c0,81.2,0,162.5,0,243.7c0,1.5,0.1,3,0.1,4.5
		c-116.5,0-233,0-349.5,0C4,286.8,4,170.3,4,53.8z"/>
	<path fill="#FFFFFF" d="M404,42.9c-2,11.5-9,19.9-17.2,27.5c-6.3,5.9-12.2,12.1-18.1,18.1c-16.6-16.6-33.1-33.2-50-50.1
		c3.3-3.2,7.1-6.8,10.8-10.4c4.3-4.3,8.7-8.5,12.8-12.9c6.1-6.5,13.7-9.9,22.1-11.8c2.8,0,5.5,0,8.3,0c0.6,0.2,1.2,0.4,1.8,0.5
		c11.6,2.4,20.5,8.6,25.7,19.4c1.7,3.6,2.6,7.6,3.8,11.4C404,37.4,404,40.1,404,42.9z"/>
	<path fill="#FFFFFF" d="M195.6,259.9c-16-15.6-32.7-31.9-49.4-48.3C198,160,249.5,108.7,301,57.4c16.1,16.1,32.5,32.6,48.7,48.9
		C298.6,157.2,247.3,208.4,195.6,259.9z"/>
	<path fill="#FFFFFF" d="M180.4,276.1c-28.6,12-56.5,23.8-85.1,35.9c11.9-28.4,23.6-56.1,35.5-84.4
		C147.5,243.9,163.8,259.8,180.4,276.1z"/>
</g>
</svg>
