<?xml version="1.0" encoding="utf-8"?>
<!-- Generator: Adobe Illustrator 18.0.0, SVG Export Plug-In . SVG Version: 6.00 Build 0)  -->
<!DOCTYPE svg PUBLIC "-//W3C//DTD SVG 1.1//EN" "http://www.w3.org/Graphics/SVG/1.1/DTD/svg11.dtd">
<svg version="1.1"
	 id="Layer_1" xmlns:rdf="http://www.w3.org/1999/02/22-rdf-syntax-ns#" xmlns:cc="http://creativecommons.org/ns#" xmlns:dc="http://purl.org/dc/elements/1.1/"
	 xmlns="http://www.w3.org/2000/svg" xmlns:xlink="http://www.w3.org/1999/xlink" x="0px" y="0px" viewBox="-315.6 57.2 400 342.1"
	 enable-background="new -315.6 57.2 400 342.1" xml:space="preserve">
<g>
	<path fill="#FFFFFF" d="M-210,135c0.7,2.6-2.7,3.9-5,5.3c-3.5,2.2-6.6,5-10,7.4c-6.7,4.6-13.1,9.6-19.8,14
		c-6.8,4.5-6.2,6.4-4.4,13.6c1.4,5.7,3.2,11.5,5.8,16.8c2.8,5.8,5.6,11.8,8.7,17.5c1.9,3.6,3.7,7.3,5.7,10.8
		c3.5,5.8,6.7,11.9,10.3,17.6c6.9,11,13.5,22.1,21.1,32.6c5.5,7.6,10.8,15.2,16.7,22.6c5.8,7.4,11.8,14.5,18.3,21.3
		c3.4,3.6,7.6,6.2,11.6,8.9c1.7,1.2,3.8,1.4,6-0.2c4.1-2.9,8.8-4.8,13-7.5c4.3-2.8,9-4.9,13.4-7.5c3.5-2.1,6.2-0.8,9,1.3
		c7.8,5.7,14.6,12.5,21.2,19.4c6.1,6.4,12.1,12.9,17.4,20c3.6,4.7,7,9.6,9.9,14.8c4.8,8.9,2.2,9.4-1.8,14.9
		c-3.8,5.2-9.1,8.4-14.9,11.3c-4,1.9-8,3.9-12.2,5.1c-4.6,1.3-9.3,2.5-14.1,3.1c-6.6,0.8-13.2,1.3-19.7,1c-6.7-0.4-13.4-1-20-2.5
		c-8.3-1.8-15.3-6.1-22-10.8c-5.3-3.7-10.3-7.9-15-12.4c-3.9-3.8-8.1-7.2-11.7-11.2c-4.9-5.4-9.8-10.8-14.7-16.3
		c-6.1-6.8-11.5-14.1-17.3-21.1c-4.9-5.9-9.1-12.2-13.7-18.3c-5.1-6.8-9.6-13.9-14.3-20.9c-6.4-9.6-12.4-19.5-18.1-29.5
		c-3.7-6.5-7.6-13-11.2-19.6c-3.2-6-6-12.2-8.9-18.4c-2.6-5.5-5.5-11-7.6-16.7c-2.4-6.4-4.9-12.9-7-19.5c-1.7-5.2-3.4-10.4-4.9-15.6
		c-1.5-5.2-2.4-10.5-3.3-15.9c-0.9-5.7-2.1-11.3-1.8-17.1c0.3-5.4,1.5-10.7,3-15.9c1.2-4.3,2.9-8.3,4.7-12.3
		c2.7-5.8,6-11.1,9.8-16.2c4.9-6.7,11-12.3,17-18c4.4-4.2,9.5-7.9,15.1-10.7c3.3-1.6,7.2-1.2,10.6-2.9c0.9-0.5,2.2,0.2,2.9,1
		c2.8,3,5.9,5.8,8.3,9.1c4.8,6.7,9.7,13.3,13.8,20.4c6,10.1,11.6,20.4,16,31.4C-212.4,124-210.6,128.6-210,135z"/>
	<path fill="#FFFFFF" d="M-43.3,109.2c40.8,0,81.5,0,122.3,0c3.2,0,5.5,2.4,5.5,5.9c0,23.7,0,47.3,0,71c0,22.3,0,44.5,0,66.8
		c0,4-2.2,6.2-6.1,6.2c-81.3,0-162.6,0-243.9,0c-3.8,0-6.1-1.9-6.5-5.9c-0.2-1.7-0.1-3.4-0.1-5.1c0-43.8,0-87.7,0-131.5
		c0-5,2.5-7.4,7.5-7.4C-124.2,109.2-83.8,109.2-43.3,109.2z M71.8,186.9c0-17.6,0-35.2,0-52.8c0-1.5,0-3,0-4.5
		c-0.1-2-0.5-2.9-2.9-1.6c-4,2.3-7.8,4.7-11.8,6.8c-7.1,3.7-14.1,7.7-21,11.8c-6.2,3.7-12.7,7-18.9,10.8
		c-7.9,4.8-16.2,8.8-24.2,13.3c-10.6,5.9-21.3,11.8-31.7,18.1c-4.4,2.7-7.9,1.3-11.6-0.9c-4.3-2.5-8.5-5.1-12.9-7.6
		c-8.1-4.5-16.3-8.9-24.3-13.5c-6.2-3.6-12.4-7.3-18.7-10.7c-5.8-3.2-11.7-6.3-17.5-9.6c-11-6.2-21.9-12.7-33-18.6
		c-1.8-1-1.8-0.2-2.3,1c-1,2.6-0.4,5.2-0.4,7.8c0,11.1,0.3,22.2,0.4,33.4c0.1,8.5,0,17.1,0,25.6c0,15.2,0,30.4,0,45.6
		c0,5.1-0.1,5.1,4.9,5.1c16.3,0,32.6,0,48.9,0c57.2,0.1,114.5,0.3,171.7,0.4c0.2,0,0.4,0,0.6,0c4.5,0.1,4.8-0.2,4.8-4.9
		C71.8,223.6,71.8,205.3,71.8,186.9z M-134.8,121.8c-1-0.5-2.3-0.9-2.6,0.3c-0.4,1.2,0.4,2.2,1.6,2.7c0.4,0.2,0.7,0.4,1,0.6
		c10.6,5.9,21.1,11.8,31.7,17.7c4.7,2.6,9.5,5.1,14.1,7.9c3.7,2.2,7.6,4.3,11.4,6.4c4.6,2.5,9.2,5.1,13.7,7.8
		c4.2,2.4,8.5,4.9,12.7,7.4c4,2.4,7.5,5,12.6,1.3c5.8-4.2,12.5-7.3,18.8-10.7c6.8-3.6,13.4-7.7,20.2-11.2
		c7.3-3.8,14.3-8.3,21.6-12.3c8.9-4.8,17.3-10.5,26.7-14.5c1.1-0.5,1.6-1.7,1.5-3c-0.2-1.7-1.6-0.8-2.4-0.8c-2.1,0-4.1,0.3-6.2,0.3
		c-29.9,0-59.8,0.1-89.8,0.1C-77,121.8-105.9,121.8-134.8,121.8z"/>
</g>
</svg>
