<?xml version="1.0" encoding="utf-8"?>
<!-- Generator: Adobe Illustrator 18.0.0, SVG Export Plug-In . SVG Version: 6.00 Build 0)  -->
<!DOCTYPE svg PUBLIC "-//W3C//DTD SVG 1.1//EN" "http://www.w3.org/Graphics/SVG/1.1/DTD/svg11.dtd">
<svg version="1.1"
	 id="Layer_1" xmlns:cc="http://creativecommons.org/ns#" xmlns:dc="http://purl.org/dc/elements/1.1/" xmlns:rdf="http://www.w3.org/1999/02/22-rdf-syntax-ns#"
	 xmlns="http://www.w3.org/2000/svg" xmlns:xlink="http://www.w3.org/1999/xlink" x="0px" y="0px" viewBox="0 0 408 408"
	 enable-background="new 0 0 408 408" xml:space="preserve">
<g>
	<g id="more-vert">
		<path fill="#257310" d="M204,102c28.1,0,51-22.9,51-51S232.1,0,204,0s-51,23-51,51S175.9,102,204,102z M204,153
			c-28.1,0-51,22.9-51,51s22.9,51,51,51s51-22.9,51-51S232.1,153,204,153z M204,306c-28.1,0-51,23-51,51s22.9,51,51,51s51-23,51-51
			S232.1,306,204,306z"/>
	</g>
</g>
</svg>
