<?xml version="1.0" encoding="utf-8"?>
<!-- Generator: Adobe Illustrator 18.0.0, SVG Export Plug-In . SVG Version: 6.00 Build 0)  -->
<!DOCTYPE svg PUBLIC "-//W3C//DTD SVG 1.1//EN" "http://www.w3.org/Graphics/SVG/1.1/DTD/svg11.dtd">
<svg version="1.1"
	 id="Layer_1" xmlns:rdf="http://www.w3.org/1999/02/22-rdf-syntax-ns#" xmlns:cc="http://creativecommons.org/ns#" xmlns:dc="http://purl.org/dc/elements/1.1/"
	 xmlns="http://www.w3.org/2000/svg" xmlns:xlink="http://www.w3.org/1999/xlink" x="0px" y="0px"
	 viewBox="40.8 2323.9 1202.4 1202.4" enable-background="new 40.8 2323.9 1202.4 1202.4" xml:space="preserve">
<g>
	<g>
		<g id="calendar_9_">
			<path fill="#FFFFFF" d="M1142.4,2436.7H979.2v-74.4c0-21.6-16.8-38.4-38.4-38.4s-38.4,16.8-38.4,38.4v74.4H676.8v-74.4
				c0-21.6-16.8-38.4-38.4-38.4s-38.4,16.8-38.4,38.4v74.4H374.4v-74.4c0-21.6-16.8-38.4-38.4-38.4s-38.4,16.8-38.4,38.4v74.4h-156
				c-55.2,0-100.8,45.6-100.8,100.8v888c0,55.2,45.6,100.8,100.8,100.8h1000.8c55.2,0,100.8-45.6,100.8-100.8v-888
				C1240.8,2482.3,1197.6,2436.7,1142.4,2436.7z M1166.4,3423.1c0,14.4-12,24-24,24H141.6c-14.4,0-24-12-24-24v-888
				c0-14.4,12-24,24-24h163.2v74.4c0,21.6,16.8,38.4,38.4,38.4s38.4-16.8,38.4-38.4v-74.4h225.6v74.4c0,21.6,16.8,38.4,38.4,38.4
				s38.4-16.8,38.4-38.4v-74.4h225.6v74.4c0,21.6,16.8,38.4,38.4,38.4s38.4-16.8,38.4-38.4v-74.4h163.2c14.4,0,24,12,24,24v888
				H1166.4z"/>
			<rect x="304.8" y="2775.1" fill="#FFFFFF" width="148.8" height="112.8"/>
			<rect x="304.8" y="2962.3" fill="#FFFFFF" width="148.8" height="112.8"/>
			<rect x="304.8" y="3149.5" fill="#FFFFFF" width="148.8" height="112.8"/>
			<rect x="566.4" y="3149.5" fill="#FFFFFF" width="148.8" height="112.8"/>
			<rect x="566.4" y="2962.3" fill="#FFFFFF" width="148.8" height="112.8"/>
			<rect x="566.4" y="2775.1" fill="#FFFFFF" width="148.8" height="112.8"/>
			<rect x="828" y="3149.5" fill="#FFFFFF" width="148.8" height="112.8"/>
			<rect x="828" y="2962.3" fill="#FFFFFF" width="148.8" height="112.8"/>
			<rect x="828" y="2775.1" fill="#FFFFFF" width="148.8" height="112.8"/>
		</g>
	</g>
</g>
</svg>
