<?xml version="1.0" encoding="utf-8"?>
<!-- Generator: Adobe Illustrator 18.0.0, SVG Export Plug-In . SVG Version: 6.00 Build 0)  -->
<!DOCTYPE svg PUBLIC "-//W3C//DTD SVG 1.1//EN" "http://www.w3.org/Graphics/SVG/1.1/DTD/svg11.dtd">
<svg version="1.1"
	 id="Layer_1" xmlns:rdf="http://www.w3.org/1999/02/22-rdf-syntax-ns#" xmlns:cc="http://creativecommons.org/ns#" xmlns:dc="http://purl.org/dc/elements/1.1/"
	 xmlns="http://www.w3.org/2000/svg" xmlns:xlink="http://www.w3.org/1999/xlink" x="0px" y="0px" viewBox="40.8 123.9 50 50"
	 enable-background="new 40.8 123.9 50 50" xml:space="preserve">
<g>
	<g>
		<g id="calendar_9_">
			<path fill="#7D97AD" d="M86.7,128.6h-6.8v-3.1c0-0.9-0.7-1.6-1.6-1.6c-0.9,0-1.6,0.7-1.6,1.6v3.1h-9.4v-3.1
				c0-0.9-0.7-1.6-1.6-1.6c-0.9,0-1.6,0.7-1.6,1.6v3.1h-9.4v-3.1c0-0.9-0.7-1.6-1.6-1.6s-1.6,0.7-1.6,1.6v3.1H45
				c-2.3,0-4.2,1.9-4.2,4.2v37c0,2.3,1.9,4.2,4.2,4.2h41.7c2.3,0,4.2-1.9,4.2-4.2v-37C90.8,130.5,89,128.6,86.7,128.6z M87.7,169.7
				c0,0.6-0.5,1-1,1H45c-0.6,0-1-0.5-1-1v-37c0-0.6,0.5-1,1-1h6.8v3.1c0,0.9,0.7,1.6,1.6,1.6s1.6-0.7,1.6-1.6v-3.1h9.4v3.1
				c0,0.9,0.7,1.6,1.6,1.6c0.9,0,1.6-0.7,1.6-1.6v-3.1h9.4v3.1c0,0.9,0.7,1.6,1.6,1.6c0.9,0,1.6-0.7,1.6-1.6v-3.1h6.8
				c0.6,0,1,0.5,1,1V169.7z"/>
			<rect x="51.8" y="142.7" fill="#7D97AD" width="6.2" height="4.7"/>
			<rect x="51.8" y="150.5" fill="#7D97AD" width="6.2" height="4.7"/>
			<rect x="51.8" y="158.3" fill="#7D97AD" width="6.2" height="4.7"/>
			<rect x="62.7" y="158.3" fill="#7D97AD" width="6.2" height="4.7"/>
			<rect x="62.7" y="150.5" fill="#7D97AD" width="6.2" height="4.7"/>
			<rect x="62.7" y="142.7" fill="#7D97AD" width="6.2" height="4.7"/>
			<rect x="73.6" y="158.3" fill="#7D97AD" width="6.2" height="4.7"/>
			<rect x="73.6" y="150.5" fill="#7D97AD" width="6.2" height="4.7"/>
			<rect x="73.6" y="142.7" fill="#7D97AD" width="6.2" height="4.7"/>
		</g>
	</g>
</g>
</svg>
