<?xml version="1.0" encoding="utf-8"?>
<!-- Generator: Adobe Illustrator 18.0.0, SVG Export Plug-In . SVG Version: 6.00 Build 0)  -->
<!DOCTYPE svg PUBLIC "-//W3C//DTD SVG 1.1//EN" "http://www.w3.org/Graphics/SVG/1.1/DTD/svg11.dtd">
<svg version="1.1" id="Layer_1" xmlns="http://www.w3.org/2000/svg" xmlns:xlink="http://www.w3.org/1999/xlink" x="0px" y="0px"
	 viewBox="12 2421 1176 757.9" enable-background="new 12 2421 1176 757.9" xml:space="preserve">
<g>
	<path fill="#5A5A5A" d="M591.7,2558.6c134.2,3,237.9,52.7,320.3,146.3c21.6,24.5,38.6,53,57.4,79.8c6.3,8.9,6.7,18.9,1.2,28.4
		c-53,92-125.8,162.8-226.2,200c-145.6,53.9-280.1,29.4-402.1-65.6c-15.8-12.3-29.9-26.7-44.2-40.8c-12.5-12.3-12.7-29.2-1.2-40
		c11.4-10.8,27.7-9.5,39.9,3.3c51.9,54.2,113.4,92.6,187.2,108.3c115,24.5,217.2-4,307.1-78.5c32.4-26.9,59.1-58.9,81.7-94.4
		c2.3-3.6,3.4-6.3,0.7-10.4c-57-88.3-133.7-150.6-237.7-173.7c-114.1-25.3-216.1,3.2-305.9,76.8c-36.3,29.8-65.5,65.8-89.6,106.1
		c-1.4,2.4-2.8,4.8-4.2,7.2c-8.8,14.6-24.3,19.2-37.8,11.2c-13.3-7.9-16.6-23.7-8.1-38.6c19.3-33.7,42.1-64.9,69.1-93
		c64-66.6,140.7-110.2,232.1-126C554.1,2561.3,577.3,2560.2,591.7,2558.6z"/>
	<path fill="#5A5A5A" d="M466,2799.3c0.2-73.8,60.6-133.5,134.7-133.1c73.3,0.3,133,60.7,132.8,134.3
		c-0.2,73.7-60.7,133.5-134.7,133.2C525.4,2933.3,465.9,2873,466,2799.3z M680,2800.3c0.2-43.8-35.6-80.3-79-80.6
		c-45.2-0.3-81.4,35.5-81.5,80.6c-0.1,43.5,36.1,79.6,79.8,79.8C643.5,2880.3,679.8,2844.4,680,2800.3z"/>
</g>
</svg>
