<?xml version="1.0" encoding="utf-8"?>
<!-- Svg Vector Icons : http://www.onlinewebfonts.com/icon -->
<!DOCTYPE svg PUBLIC "-//W3C//DTD SVG 1.1//EN" "http://www.w3.org/Graphics/SVG/1.1/DTD/svg11.dtd">
<svg version="1.1" xmlns="http://www.w3.org/2000/svg" xmlns:xlink="http://www.w3.org/1999/xlink" x="0px" y="0px" viewBox="0 0 1000 1000" enable-background="new 0 0 1000 1000" xml:space="preserve">
<metadata> Svg Vector Icons : http://www.onlinewebfonts.com/icon </metadata>
<g><path d="M978.1,484.1c-2.3-3.1-56.4-75.6-143.2-146.4c-49.3-40.2-99.6-72.2-149.6-95.2c-62.6-28.7-124.9-43.2-185.3-43.2c-60.4,0-122.7,14.5-185.3,43.2c-50,22.9-100.3,54.9-149.6,95.2C78.8,408.2,24.2,481,21.9,484.1L10,500l11.9,15.9c2.3,3.1,56.9,75.9,143.2,146.4c49.3,40.2,99.6,72.2,149.6,95.1c62.6,28.7,124.9,43.2,185.3,43.2c60.4,0,122.7-14.5,185.3-43.2c50-22.9,100.3-54.9,149.6-95.2C921.2,591.8,975.8,519,978.1,516l11.9-16L978.1,484.1z M922.6,500c-22.5,27.1-75.5,86.4-147.2,140.3C680.6,711.4,587.9,747.4,500,747.4c-87.9,0-180.5-36-275.3-107.1C152.9,586.5,100,527.1,77.4,500c22.5-27.1,75.5-86.4,147.3-140.3c94.8-71.1,187.4-107.1,275.3-107.1c87.8,0,180.4,36,275.2,107.1C847,413.6,900,472.9,922.6,500z"/><path d="M500,289.8c-115.9,0-210.3,94.3-210.3,210.2c0,115.9,94.3,210.2,210.3,210.2c115.9,0,210.2-94.3,210.2-210.2C710.2,384.1,615.9,289.8,500,289.8z M500,659.8c-88.1,0-159.8-71.7-159.8-159.8c0-88.1,71.7-159.8,159.8-159.8c88.1,0,159.8,71.7,159.8,159.8C659.8,588.1,588.1,659.8,500,659.8z"/></g>
</svg>