<?xml version="1.0" encoding="utf-8"?>
<!-- Generator: Adobe Illustrator 18.0.0, SVG Export Plug-In . SVG Version: 6.00 Build 0)  -->
<!DOCTYPE svg PUBLIC "-//W3C//DTD SVG 1.1//EN" "http://www.w3.org/Graphics/SVG/1.1/DTD/svg11.dtd">
<svg version="1.1" id="Layer_1" xmlns="http://www.w3.org/2000/svg" xmlns:xlink="http://www.w3.org/1999/xlink" x="0px" y="0px"
	 viewBox="0 0 299.7 257.7" enable-background="new 0 0 299.7 257.7" xml:space="preserve">
<g>
	<path fill="#EAE6E6" d="M299.7,81c-2,0.2-3.3,2.2-5.4,2.4c-2.1,0.2-3.6,0.2-4.2-2.3c-1.5-6.9-3-13.7-4.5-20.6
		c-0.3-1.2,0.3-2,1.5-2.2c4.2-1,8.3-2.2,12.6-2.5c0,1.9,0,3.7,0,5.6c-2.7-2.2-5.8-1.4-8,0c-1.8,1.2-3.7,3.7-3,6.6
		c0.9,4,2,7.9,2.8,11.9c0.3,1.6,1.1,2.1,2.5,1.8c1.6-0.4,2.2-1.4,1.8-3c-0.7-3-1.3-6-2-9c-0.3-1.2-0.8-2.4,0.2-3.5
		c0.7-0.8,1.7-0.7,2.6-0.3c1.5,0.6,1.7,1.8,1.8,3.3c0.1,1.2-0.8,2.8,1.2,3.3C299.7,75.2,299.7,78.1,299.7,81z M295.9,67.7
		c-0.2,3.2,0.7,6.2,2.1,9.1C298.2,73.6,297.8,70.5,295.9,67.7z"/>
	<path fill="#EAE6E6" d="M0,205.2c2.1-0.6,2.1-2.6,2.7-4.1c1.6-3.7,2.2-4,5.7-2c0.2,0.1,0.3,0.2,0.5,0.3c6.1,3.1,6.1,3.1,2.7,9.3
		c-2.2,3.8-4.4,7.7-6.7,11.4c-1.1,1.8-2.4,3.4-4.9,3.1c0-2.7,0-5.4,0-8c2-0.3,3.6,0.2,4.4,2.8c0.9-2.2,3.5-3,2.4-5.1
		c-0.7-1.3-0.3-2.1,0.2-3.1c1.1-2,2.1-4,3.4-5.9c1-1.4,0.6-2.2-0.8-2.8c-1.3-0.6-2.5-1.3-3.2,0.6c-0.9,2.2-1.9,4.3-2.6,6.6
		c-0.6,1.9-1.7,3-3.8,2.5C0,208.9,0,207,0,205.2z"/>
	<path fill="#EAE6E6" d="M16.7,0c-0.2,1.4,0.2,2.6,1.4,3.6c1.4,1.2,1.4,2.7,0.6,4.2c-1.5,2.6-3.3,5.1-5.7,6.8
		c-1.9,1.4-4.4,3.6-7,0.6c-0.2-0.2-0.8-0.3-1.2-0.2c-1,0.3-2.2,0.9-2.6-0.5c-0.5-1.4,1.2-1.4,1.8-2.1c1.1-1.3,2.8-2.1,2.5-4.5
		C6.3,6.3,7.9,4.6,9.9,4.4c2.7-0.4,4.1-2.1,5-4.4C15.4,0,16.1,0,16.7,0z M15.3,3.7c-1.5,0.1-2.9,0.7-2.7,2.3c0.2,1.5,1.5,2.9,3,3
		c1.4,0.1,2.1-1.6,2.2-2.9C17.9,4.5,16.7,3.9,15.3,3.7z M8.8,15.4c1.1-0.1,2.1-0.7,2-1.6c-0.1-1.5-1.4-2.6-2.7-3
		c-1-0.3-2,0.8-1.8,1.9C6.5,14.1,7.6,14.9,8.8,15.4z"/>
	<path fill="#EAE6E6" d="M299.7,207c-2.9,2.1-3.1,5.6-4.2,8.5c-1.8,4.7-1.7,5-6.2,2.8c-6.7-3.3-6.7-3.2-2.9-9.6
		c1.6-2.7,2.9-5.6,5.2-7.8c0.2,1.3-0.4,2.5-0.6,3.7c-0.4,0.1-0.8,0.1-0.9,0.6c0,0.1,0.2,0.4,0.3,0.3c0.5-0.1,0.5-0.5,0.6-0.9
		c2,0.4,0.7,1.6,0.4,2.3c-1.2,2.2-2.5,4.2-3.7,6.4c-0.7,1.2-1.4,2.4,0.5,3.2c1.5,0.7,2.8,0.7,3.6-1c0.3-0.7,0.5-1.4,0.8-2
		c0.8-2,1.3-5.3,2.6-5.6c2.4-0.7,2.4-2.3,3.1-3.8c0.3-0.7,0.7-1.3,1.6-1.3C299.7,204.1,299.7,205.6,299.7,207z M286.5,212.4
		c-0.2-0.1-0.4-0.2-0.5-0.2c-0.1,0-0.2,0.3-0.2,0.5c0.2,0.1,0.4,0.2,0.5,0.2C286.4,212.8,286.4,212.6,286.5,212.4z M288.3,209.3
		c-0.2-0.1-0.4-0.2-0.5-0.2c-0.1,0-0.2,0.3-0.2,0.5c0.2,0.1,0.4,0.2,0.5,0.2C288.2,209.7,288.3,209.5,288.3,209.3z"/>
	<path fill="#EAE6E6" d="M250.9,0c0.1,2,0.2,3.9-1.9,5.1c-0.9,0.5-0.5,1.7-0.6,2.6c-0.2,2.5-1.5,4.1-3.9,4.5
		c-2.6,0.5-4.3-1.1-5.4-3.2c-1.3-2.3,0.1-4,1.7-5.3c1.3-1,2.4-1.9,2.1-3.7c1,0,2.1,0,3.1,0c0.1,1.5,1.2,2.3,2.5,2.1
		c1-0.1,0.5-1.4,0.6-2.1C249.7,0,250.3,0,250.9,0z M243.8,10.5c0.1,0,0.6,0,0.9-0.1c1.1-0.5,2.5-1.3,2.3-2.6
		c-0.2-1.8-1.6-0.5-2.4-0.4c-1,0.1-1.6-0.2-1.7-1.3c0-0.6,0.1-1.4-0.8-1.4c-0.8,0-1.2,0.7-1.5,1.4C239.6,8.3,241,10.5,243.8,10.5z"
		/>
	<path fill="#EAE6E6" d="M244.7,257.7c-0.1-2,1.2-3,2.7-3.8c1.8-0.9,2-1.8,0.6-3.2c-0.6-0.6-0.9-1.3-1.5-1.9
		c-0.5-0.5-1.3-0.8-0.6-1.7c0.6-0.8,1.4-1.2,2.4-1c0.9,0.2,1.3,0.8,1.3,1.8c0.1,3.6,2.3,5.2,5.8,4.4c3.7-0.9,6.2,1.2,6.6,5.5
		c-0.6,0-1.2,0-1.9,0c0.2-2.1-0.7-3.6-2.7-4.2c-0.8-0.3-1.9-0.3-2.5,0.6c-0.6,1,0.3,1.4,1,1.8c0.7,0.4,1,1,1,1.8c-2.5,0-4.9,0-7.4,0
		c-0.2-0.9,0.5-2.3-0.5-2.7c-1.2-0.4-1.7,1-2.4,1.8c-0.2,0.2-0.1,0.6-0.2,0.9C245.9,257.7,245.3,257.7,244.7,257.7z"/>
	<path fill="#EAE6E6" d="M0,79.7c1,0,2.1,0,3.1,0c1.4-0.1,2-1,1.8-2.3c-0.9-4.5-2-9-2.9-13.5C1.7,62.7,1,62.4,0,62.4
		c0-2.3,0-4.5,0-6.8c2,0.1,2,1.9,2.3,3.1c1.4,5.9,2.4,12,3.9,17.9c0.7,2.9-0.1,4.2-2.9,4.6c-1.1,0.2-2.2,0.3-3.3,0.3
		C0,81,0,80.3,0,79.7z"/>
	<path fill="#EAE6E6" d="M299.7,201.5c-2.1,0.3-4.4,2.4-6-0.9c-0.1-0.2-1.3,0.2-2,0.3c0.3-2.1,1.8-3.6,2.8-5.3
		c1.3-2,3.3-1.5,5.2-0.9C299.7,196.9,299.7,199.2,299.7,201.5z"/>
	<path fill="#EAE6E6" d="M16.1,257.7c-0.2-1.1-0.4-2.2-0.5-3.3c-0.1-0.9-0.3-1.9,0.7-2.5c0.9-0.6,1.7,0,2.2,0.6
		c1.6,1.6,3.8,2.8,4.5,5.2C20.6,257.7,18.3,257.7,16.1,257.7z"/>
	<path fill="#EAE6E6" d="M299.7,223.1c-3.4-1.5-4.2-3.1-2.9-6.4c0.7-1.9,0.7-4.2,2.9-5.4C299.7,215.3,299.7,219.2,299.7,223.1z"/>
	<path fill="#EAE6E6" d="M239.1,257.7c-0.2-1.6,0.7-2.7,2.1-2.7c1.5,0,1.2,1.7,1.6,2.7C241.6,257.7,240.4,257.7,239.1,257.7z"/>
	<path fill="#EAE6E6" d="M0,195.9c1.7,0.1,1.9,1.3,1.9,2.6c0,1.3-0.4,2.2-1.9,2.3C0,199.2,0,197.5,0,195.9z"/>
	<path fill="#EAE6E6" d="M194.8,33.5c-2.5-2.5-5.1-3.8-7.6-5.3c-2-1.2-3.1-2.6-2.2-4.7c0.8-2,2.5-1.1,4-0.7c6.1,1.5,12.1,3,18.2,4.3
		c2.1,0.4,2.5,1.5,2.2,3.3c-0.2,1.2-0.5,2.4-0.9,3.6c-1,3.4-1.9,3.7-4.8,1.5c-2-1.5-4.2-0.8-6.3-0.7c-1.4,0.1-0.7,1.1,0,1.6
		c2.2,1.5,4.4,2.9,6.7,4.3c1.4,0.9,2.5,1.8,1.8,3.7c-0.7,2.1-2.1,1.7-3.7,1.4c-6.5-1.5-12.9-2.9-19.4-4.4c-1.4-0.3-2.2-1.4-2-2.7
		c0.3-1.9,0.8-3.8,1.5-5.6c0.5-1.2,1.7-1.8,3.1-1.1C189.6,33.7,189.6,33.8,194.8,33.5z M198.9,28.6c-1.7-0.3-3.2,0.9-3.1,2.1
		c0.1,1,1.8,2.6,3.2,2.3c2.3-0.4,4.2,0,5.9,1.6c0.5,0.5,1.2,0.9,1.9,0.2c0.5-0.6,0-1.1-0.3-1.7C204.8,30.1,202.1,28.9,198.9,28.6z
		 M191.4,39.5c1.3,0.1,2.5,0.1,3.3-1.1c0.2-0.3,0.4-0.9,0-1.1c-1.3-0.6-1.7-2.5-3.7-2.2c-2,0.3-4.1,0.1-5.8-1.4
		c-0.4-0.3-0.9-0.5-1.4,0c-0.3,0.4,0,0.7,0.1,1.1C185.4,38.1,188,39.5,191.4,39.5z M187.4,25.5c0.9,2.2,2,2.7,3.4,2.8
		c0.5,0,0.8-0.5,0.6-0.8C190.7,26,189.1,26.6,187.4,25.5z M193.9,28.4c0.3-0.1,0.9,0.1,0.8-0.5c-0.1-0.3-0.6-0.5-0.9-0.6
		c-0.2,0-0.6,0.2-0.7,0.4C193,28.3,193.5,28.3,193.9,28.4z"/>
	<path fill="#EAE6E6" d="M48.6,153.3c-4.2,1.1-9-1.6-10.9-6c-2.4-5.5-1.1-11.5,3.1-14.4c5.4-3.8,11.5-3.5,16.2,1.1
		c0.9,0.9,2.5,0.8,2.7,2.5c0.3,2.7-0.6,4.1-3.4,4.5c-1.7,0.2-3.4,0.9-4.9,1.6c-1.1,0.5-1.5,1.7-1.2,2.9c0.4,1.4,1.6,1,2.6,0.8
		c2.4-0.5,4.8-1,7.1-1.8c1.8-0.6,2.9-0.5,3.4,1.6c0.5,2.1,1.3,4.5-1.3,5.7c-3.7,1.6-7.6,2.8-11.3-0.2c-0.9-0.7-1.8-0.9-2.9-0.6
		c-1.8,0.5-2.8-0.8-3-2.2c-0.7-7,1.5-9.9,8.2-11.7c1-0.2,2.3-0.5,2.3-1.7c0-1.3-1.2-2-2.4-2.5c-4-1.8-7.8-1.7-11.2,1.2
		c-2.7,2.3-4.5,5.3-3.8,8.9c0.9,4.9,3.5,8.5,8.7,9.6C47.3,152.7,47.9,152.5,48.6,153.3z M58.1,138.3c-2.6-0.6-6.4,0.4-8.7,1.6
		c-2.1,1.1-2.6,2.7-2.4,4.8c0.1,0.6-0.1,1.4,0.8,1.4c0.7,0,1-0.7,1-1.3c0.2-3.5,2.7-4.5,5.6-5.1C55.5,139.5,56.7,139.4,58.1,138.3z
		 M54.1,148.6c0-0.7-0.5-1-1-0.8c-1,0.5-2.4,0-2.9,1.3c-0.3,0.8,0.5,1,1.1,1C52.6,150.2,53.5,149.7,54.1,148.6z"/>
	<path fill="#EAE6E6" d="M196,189.6c-0.3-2.4,1-3,2.3-3.5c2.8-1.1,5.5-2.1,8.3-3.3c2.2-0.9,4.4-1.4,5.7-4c1.2-2.3,5.1-1.7,7,1
		c2.6,3.8,3.4,8.5,5.4,12.6c0.6,1.2-0.9,1.9-2,2.3c-5.1,2.1-10.2,4.2-15.4,6.2c-5.7,2.1-5.8,2-8.1-3.5
		C198,194.7,196.9,191.8,196,189.6z M214.9,194.5c-0.9-2.1,0.3-4.2-1.1-5.7c-1.4-1.5-3.3-1.4-5.7-1.4c1.3-1,2.2-1.4,3.2-1.1
		c2.3,0.8,4.2-0.3,6.3-0.9c2.3-0.7,2.1-2.2,1.4-3.9c-0.7-1.7-1.6-1.9-3.3-1c-2.9,1.5-6.1,2.4-9.1,3.6c-2.2,0.9-4.4,1.9-6.6,2.9
		c1.3,0.5,3.1-0.6,3.4,1c0.5,2.5,1.7,2.2,3.4,1.1c-0.6,5.5,0.3,6.5,5.7,6.2c0.4,0,1-0.2,1,0.3c0.1,2.1,1.4,0.9,2.1,0.7
		c2.1-0.7,4.2-1.7,6.3-2.5c1-0.4,1.5-1.1,1.2-2.2c-0.4-1.2-1.6-1-2.3-0.7C218.6,191.8,216.5,192.4,214.9,194.5z M211.5,198
		c-3.8-2.5-6.5-0.6-9.3,0.7c-0.7,0.4-1,1.1-0.6,1.8c0.4,0.9,1.2,1,2.1,0.7C206.2,200.2,208.6,199.2,211.5,198z M217.4,190.9
		c1.3-0.8,4,0,4.1-2.6c0.1-1.2-0.9-2.5-2.4-2.2c-1.6,0.4-3.7,0.5-3.9,2.7C215.1,190,215.8,191,217.4,190.9z M202.5,197
		c0.9-0.7,3.3,0,3.3-2.7c0-1.3-0.7-2.5-2-2c-1.5,0.6-3.9,0.5-4,2.9C199.7,196.4,200.6,197.3,202.5,197z M201.6,191.7
		c-1.3-1-2.7-0.6-3.1-2c-0.2-0.6,0.9-2-0.7-1.6c-1.1,0.3-0.2,1.4-0.1,2.1C198.1,192.3,199.3,192.5,201.6,191.7z"/>
	<path fill="#EAE6E6" d="M69.8,195.3c0.9,0.4,1.1,1.1,1.4,1.9c1.8,5.9,3.7,11.7,5.5,17.6c1.1,3.7,0.2,5.4-3.6,6.2
		c-3,0.7-5.9,1.5-8.9,2.4c-2.2,0.7-3.7,0-4.4-2.1c-1.7-5-3.3-10.1-4.7-15.2c-0.3-1.3-1-2.4-1.4-3.7c-1-2.9,0.5-4.4,2.7-5.2
		c3.2-1.2,6.6-2,10-3C67.7,193.9,69,193.7,69.8,195.3c-4.6-0.1-8.6,2.4-13,3.2c-1.2,0.2-2.2,1.4-1.6,2.8c0.5,1.2,1.7,0.8,2.7,0.5
		c2.9-0.9,5.8-1.9,8.8-2.6C68.7,198.8,70.4,197.9,69.8,195.3z M56.1,205.2c1.2,3.9,2.4,7.8,3.6,11.7c0.4,1.2,1.4,1.3,2.5,0.9
		c3.4-1,6.9-2,10.3-3.1c1.2-0.4,2.5-0.9,2-2.6c-1.1-3.6-2.3-7.2-3.4-10.8c-0.5-1.7-1.5-2.1-3-1.5c-3.2,1.3-6.7,2-10,2.9
		C56.9,203.1,56,203.8,56.1,205.2z M62.9,222.4c1.5-0.8,3.5-0.6,4.8-1.9c0.4-0.4-0.1-1.3-0.5-1.6c-1.7-1.5-3.2,0.2-4.9,0.3
		c-0.1,0-0.2,0.1-0.3,0.1c-0.7,0.4-1.6,0.7-1.2,1.8C61.2,221.8,61.9,222.3,62.9,222.4z M71.1,219.9c1.2-1,4,0.2,4.2-2.7
		c0.1-1-0.6-1.9-1.4-1.4c-1.6,0.9-4.3,0.1-4.7,2.9C69.1,219.7,69.9,220,71.1,219.9z"/>
	<path fill="#EAE6E6" d="M247.8,97c0.1,1.6-0.5,2.6-1.8,3c-4.1,1.3-8.2,2.5-12.4,3.7c-1.6,0.4-2.5-0.5-3-1.9
		c-2.4-6.6-3.8-13.6-6.5-20.1c-1-2.4,1.1-3.6,2.7-4.2c3.4-1.3,7-2.3,10.6-3.2c2-0.5,3.7-0.1,4.4,2.2c2,6.6,4,13.1,6,19.7
		C247.7,96.5,247.7,96.8,247.8,97z M226.9,85.7c1.1,3.5,2.2,7.5,3.5,11.5c0.3,0.9,1.2,1.2,2,0.9c3.9-1.2,7.8-2.4,11.7-3.7
		c1.1-0.3,1.3-1.2,1-2.2c-1.2-3.6-2.3-7.2-3.4-10.8c-0.5-1.6-1.3-1.6-2.8-1.3c-3.6,0.5-6.8,2.3-10.4,2.9
		C227.4,83.2,226.6,83.9,226.9,85.7z M240.3,77c-0.1-1.1-0.9-1.8-1.9-1.6c-4.1,0.8-8.2,1.9-11.9,3.7c-0.9,0.4-1.2,1.5-0.7,2.4
		c0.4,0.8,1.2,0.6,1.9,0.4c3.9-1.2,7.8-2.4,11.7-3.6C240.1,78.2,240.4,77.7,240.3,77z M239,98c1.8,3.6,3.8,1.4,5.7,1
		c1.1-0.2,2.1-0.7,1.7-2c-0.4-1.3-1.6-1.3-2.6-1.1c-3.7,1-7.3,2.1-10.9,3.2c-0.8,0.2-1.1,0.8-1.1,1.6c0,0.9,0.5,1.3,1.2,1.6
		C234.8,102.9,238.5,100.7,239,98z"/>
	<path fill="#EAE6E6" d="M125.4,60.6c-4.8-2.2-5.6-5.1-2.5-9c1.7-2.1,3.3-4.2,5-6.2c1.5-1.8,4.6-2.2,6.4-0.9
		c4.4,3.1,4.4,3.1,5.8-2.4c1.2,2,1,4.2,2.5,5.9c1.7,2,4,1,5.8,1.7c0.1,0.8-0.4,0.8-0.7,0.9c-3,1-3.4,2.3-1.4,4.6
		c3.4,3.8,3.3,4.4,0.1,8.2c-1.8,2.1-3.6,4.2-5.6,6.1c-2.3,2.2-3.3,2.1-5.5-0.4l0,0c2.9,0.5,5.1-0.6,6.9-2.9c1.5-1.8,3.1-3.6,4.6-5.3
		c0.6-0.7,1.1-1.5,0.6-2.2c-1.7-2.6-3.8-4.8-7.2-6.8c2.2,4.7,1.7,6.3-2,8c3.1-3.6,1.6-6.3-1.6-8.8c-0.1-0.1-0.2-0.3-0.3-0.5
		c0.7-0.1,1.4,0.2,2.3-0.6c-1-0.6-1.3-2.1-2.8-1.7c-0.6,0.2,0.1,1.1,0,1.6c-3.6-3.4-6.3-1.7-8.8,1.5c-0.1,0.1-0.3,0.2-0.5,0.3
		c-0.1-0.7,0.2-1.4-0.4-2.1c-1.4,0.6-2.2,1.7-2.1,3.3c-2.8,0.8-2.1,2.5-1,4.2C123.9,58.4,125.4,59,125.4,60.6L125.4,60.6z
		 M134.8,47.5c-0.9-2.4-2.4-2.6-4-2.4c-1.3,0.2-2.2,1-2,3C130.4,45.2,132.4,46.9,134.8,47.5z M139.2,48.8c0.6,0.6,1.1,1.2,1.8,1.6
		c0.6,0.5,1.2,1.9,2.1,0.9c0.8-0.8-0.4-1.6-1-2.2C141.3,48.3,140.4,47.8,139.2,48.8z"/>
	<path fill="#EAE6E6" d="M247.3,137.2c3.6-0.2,6.5,0.5,8.1,3.9c0.1,0.3,0.6,0.7,0.9,0.7c0.7,0,0.7-0.6,0.7-1.1
		c0.1-2.2,1.3-1.7,2.5-1c2.3,1.2,4.5,2.5,6.7,3.7c0.3,0.1,0.7,0.4,0.7,0.5c-0.7,3.1,1.6,6,0.7,9.2c-0.7,2.7-2.4,4.5-4.9,5.6
		c-4.3,1.8-9.2-0.4-10.7-4.9c-1.3-3.9-2.5-7.8-3.5-11.8c-0.5-2.2-1.4-3.2-3.7-2.9c-0.6,0.1-1.7,0.4-1.8-0.7c-0.1-1.1,1-1.1,1.8-1.1
		C245.9,137.2,246.7,137.2,247.3,137.2z M259.7,157.6c1-0.1,2.1,0,3.3-0.7c5-2.7,3.1-7,2.6-10.9c-0.4-2.8-3.2-3.2-5.2-4.2
		c-1.2-0.6-1.7,0.2-1.3,1.4c0.5,1.6,1.1,3.1,1.5,4.7c0.3,1.3-0.1,2.4-1.3,3.2c-0.9,0.5-1.6,0.2-2.2-0.5c-1.7-2-3.1-4.4-2.9-6.9
		c0.2-2-0.7-2.8-1.8-3.9c-0.6-0.6-1.4-1-2.2-0.6c-1.1,0.5-0.4,1.4-0.2,2.1c1,3.9,2,7.7,3.1,11.5C254.1,156,256.3,157.6,259.7,157.6z
		 M258.7,147.9c-0.6,0-0.9,0.3-0.9,0.7c0,0.4,0.3,0.7,0.7,0.8c0.4,0,0.8-0.2,0.7-0.7C259.2,148.4,258.8,148.1,258.7,147.9z"/>
	<path fill="#EAE6E6" d="M137.7,248.3c1.5-0.4,3.2,0.8,3.6-0.9c0.4-1.7,1.4-3.1,0.5-5.4c-1.6-4.1-5.5-6.7-6.2-11.2
		c-0.2-1.3-2.3-1.3-2.6-2.9c1.7-0.3,3.3,1.8,4,1.2c2-1.8,4-0.2,5.8-0.7c1.4-0.4,2.5,0.1,3.5,0.7c2.6,1.5,5,3.2,7.4,4.9
		c2.1,1.5,3,3.5,2.2,6.2c-0.8,2.6-2.6,4.2-5.2,3.9c-3-0.3-4,1.3-4.7,3.6c-0.3,0.8-0.5,1.6-0.8,2.3c-0.8,2-1.9,2.9-3.9,1.3
		C140.2,250.3,138.8,249.8,137.7,248.3z M140.9,232.4c-0.2-1,0.6-2.4-0.8-2.9c-0.9-0.3-1.2,0.9-1.7,1.4c-0.4,0.5-0.8,1.1-0.3,1.6
		C139,233.5,139.9,232.2,140.9,232.4c-0.3,0.8-0.7,1.7-0.9,2.5c-0.6,1.8,0.4,2.7,2,3c1.4,0.3,1.5-1.5,2.6-1.8
		c0.1,1.6-1.6,3.6,1.2,4.6c1.7,0.6,2.9,2.3,5,2.2c2.2-0.1,3.4-1.2,3.7-3.3c0.6-3.6-2.2-4.9-4.5-6.5c-2.5-1.8-2.5,1.7-4.1,1.8
		c0.1-0.7,0.2-1.4,0.4-2.1c0.4-1.4,0.1-2.3-1.2-3c-1.4-0.7-2.1,0.1-2.7,1.1C141.9,231.4,141.6,232.1,140.9,232.4z M143,250.2
		c0.2-0.1,0.6-0.2,0.7-0.4c0.9-2.3,1.7-4.6,2.5-6.9c0.1-0.2-0.4-0.7-0.7-0.9c-0.6-0.3-1,0.1-1.2,0.6c-0.8,2-1.6,4-2.2,6.1
		C142,249.3,142.2,249.9,143,250.2z"/>
	<path fill="#EAE6E6" d="M185.2,111.3c-2.8-0.7-4.4,1.3-5.6,3.2c-1.1,1.8,0.1,3.3,1.1,5c1.5,2.6,1.8,5.6,2.1,8.6c0.2,2-2.2,3-4,1.8
		c-1.3-0.9-2.5-2.1-3.7-3.2c-0.5-0.5-1.1-1.2-0.7-1.9c1.9-4,2.5-8.5,5-12.2c2.5-3.7,8.1-4.4,11.2-1.2c2.2,2.4,4.8,4.4,7.4,6.2
		c1.5,1,2.1,2.2,0.9,3.9c-1.3,1.9-1,5.5-4.4,5.1c-3.1-0.4-2.2-3.8-2.8-5.8c-0.5-2-2.4-4-0.5-6.3c0.4-0.4-0.5-1-0.9-1.5
		C189,111.4,187.3,111,185.2,111.3z M196.5,122.6c0.2-1.9-0.4-3.3-1-4.7c-0.5-1.1-1.3-2.1-2.6-1.4c-1.2,0.6-0.8,1.8-0.4,2.7
		c0.5,1.1,0.9,2.3,1,3.5c0.1,1,0.5,2.2,1.8,2C196.9,124.6,196.4,123.2,196.5,122.6z M177.4,122.4c0.4,1.6,0.9,3.4,1.5,5.1
		c0.3,0.9,1.2,1.1,2,0.9c1-0.3,0.7-1.1,0.5-1.8c-0.5-1.7-0.8-3.4-1.3-5c-0.2-0.8-0.6-1.7-1.7-1.4
		C177.4,120.4,177.3,121.4,177.4,122.4z"/>
	<path fill="#EAE6E6" d="M87.1,11c0,1.1-0.5,1.7-1.6,1.9c-1.3,0.2-2.6,0.7-3.9,0.6c-4.8-0.1-8.4,2.3-11.8,5.3
		c-0.1,0.1-0.1,0.1-0.2,0.2c-4.1,4.1-5.1,3.9-7.2-1.5c-0.4-1-0.8-1.9-1.3-2.8c-1.5-2.8-1.1-3.9,2-4.2c6.2-0.6,11.5-2.5,16-7
		c2.7-2.7,4-2.1,5.5,1.5c0.7,1.8,1.6,3.5,2.4,5.3C87.1,10.6,87.1,10.8,87.1,11z M80.3,12.2c1.3-1,4.2,0.8,5.4-1.8
		c0.4-1-3.2-6.5-4-6.5c-1.1,0-5.7,4.5-5.3,4.6C78.1,9.2,76.5,13,80.3,12.2z M66.4,11.7c-3.8,0-4.4,0.2-4.5,1.6
		c0,0.9,3.1,6.8,3.7,6.8c1,0.1,5.3-3.7,5.4-4.8c0-1.3-1.8-1.5-1.6-3.2C69.4,11.4,67.3,12,66.4,11.7z M73.7,9.3
		c-1.3,0.1-2.5,0.7-2.3,1.9c0.2,1.3,0.6,2.9,2.5,3c1.2,0,2.1-0.4,2.1-1.7C75.9,11,75.4,9.7,73.7,9.3z"/>
	<path fill="#EAE6E6" d="M125.4,190.7c-2.5-0.4-4.8-1.4-7.2-2.4c-1.1-0.5-2.2-1.2-3.3-1.5c-3.5-1.2-4.2-2.9-2.8-6.2
		c2.2-5,4.2-10,6.2-15c1.4-3.5,2.6-4.2,6-2.9c3.5,1.4,7,2.8,10.6,4.2c2.5,0.9,3.4,2.5,2.2,5c-2.2,4.8-3.7,9.9-6,14.7
		C129.9,189,128.1,190.3,125.4,190.7z M124.3,189.1c2.9,0,4.7-0.6,5.5-2.5c2.1-5,4.1-10.1,6-15.1c0.6-1.7,0-3-1.7-3.7
		c-3.4-1.3-6.8-2.7-10.2-4.2c-1.8-0.8-3.1-0.3-3.8,1.4c-2.4,5.7-4.6,11.4-6.9,17.1c-0.4,1-0.9,2.2,0.4,2.7
		C117.3,186.4,121,188.4,124.3,189.1z"/>
	<path fill="#EAE6E6" d="M129.5,107.6c5.3,0.1,9.9,1.6,13.7,5.5c1,1,1.5,2.2,1.9,3.5c0.3,1.2,0.6,2.6-0.6,3.4
		c-1,0.8-2.3,0.4-3.5,0.1c-2.3-0.6-4.7-1-7-1.4c-1.2-0.2-1.5,0.7-1.7,1.8c-0.4,2.3-0.8,4.6-1.3,6.9c-0.1,0.7-0.4,1.6-1.3,1.3
		c-0.7-0.2-0.6-1.1-0.3-1.6c0.9-2,0.9-4.2,1.5-6.3c0.4-1.6,0.3-2.8-1.8-3c-2.2-0.2-4.1-1.5-6.5-1.4c-2.5,0-3.1-1.4-2.1-3.8
		C121.7,109.6,125.5,107.5,129.5,107.6z M130.1,109.4c-3-0.3-5.5,0.5-7.6,2.7c-0.6,0.6-1,1.4-0.6,2.2c0.4,0.8,1.2,0.7,1.9,0.5
		c0.9-0.3,1.5-0.1,2.2,0.4c2.1,1.5,4.6,1.9,7.2,2.3c2.9,0.5,6.1-0.7,8.7,1.5c0.7,0.6,1.4-0.1,1.4-1c0.1-1.4,0-2.7-1.1-4
		C139,110.3,134.6,109.7,130.1,109.4z"/>
	<path fill="#EAE6E6" d="M70.4,90.8c-2.5,2-5.7,2.6-8.6,3.6c-1.4,0.4-2.5-0.8-3-2.1c-2.6-6.7-5.2-13.4-7.8-20
		c-0.6-1.5-0.1-2.5,1.3-3.3c4.1-2.3,8.6-3.3,12.9-5c1-0.4,2,0.3,2.2,1.6c0,0,0,0,0,0c-5.2,0-9.7,2.4-14.3,4.4
		c-1.3,0.5-1.4,1.7-0.9,2.9c2.3,5.8,4.7,11.6,7,17.4c1.4,3.5,2.3,4,5.7,2.1C66.7,91.3,68.4,90.7,70.4,90.8L70.4,90.8z"/>
	<path fill="#EAE6E6" d="M67.4,65.5c2.5,2.9,2.9,6.7,4.5,9.9c1.6,3.2,2.4,6.7,3.7,10.1c0.5,1.4,0.8,2.6-0.8,3.4l0,0
		c0.4-3.4-1.3-6.1-2.4-9.1C70.7,75.1,68.1,70.6,67.4,65.5L67.4,65.5z"/>
	<path fill="#EAE6E6" d="M135.3,69.2c-3.8-2.3-7.1-5.2-9.9-8.7l0,0c0.8,0,1.6,0,2.5,0c0.3,1.9,1.9,2.7,3.2,3.8
		C132.8,65.7,134.7,66.9,135.3,69.2L135.3,69.2z"/>
	<path fill="#EAE6E6" d="M74.8,89c-1,1.7-2.6,1.9-4.3,1.9l0,0C71.3,88.8,73.1,89.2,74.8,89L74.8,89z"/>
	<path fill="#EAE6E6" d="M124.2,53.1c0.6-0.2,1.3-0.4,1.9-0.6c-1.1,2.3-0.5,4,1.5,5.6c0.9,0.7,1.5,1.6,2.2,2.5c-0.6,0-1.2,0-1.9,0
		C126.4,58.2,123.2,56.7,124.2,53.1z"/>
	<path fill="#EAE6E6" d="M138.4,59.9c-0.1,2.4-1.5,3.8-3.6,4.2c-1.7,0.3-3.4-0.2-3.8-2.4C134.3,64.3,136.3,61.8,138.4,59.9z"/>
	<path fill="#EAE6E6" d="M144.6,236.1c0-0.8,0.4-1.2,1.2-1.2C145.8,235.6,145.4,236,144.6,236.1z"/>
	<path fill="#EAE6E6" d="M119.3,172.8c0.6-2.5,1.6-4.4,2.7-6.3c0.5-0.8,1.2-1,2.1-0.6c2.6,1.2,5.2,2.3,7.9,3.4c1,0.4,1.7,1,1.5,2
		c-0.4,2.2-1.3,4.3-2.4,6.3c-0.5,0.9-1.4,1.1-2.4,0.7c-2.6-1-5.2-2-7.7-3.1C119.7,174.8,119.1,173.8,119.3,172.8z M132.2,171.5
		c-0.2-0.3-0.4-0.8-0.7-0.9c-2.4-1.1-4.8-2.2-7.3-3.1c-0.8-0.3-1.5,0.1-2.1,0.9c-2.3,3.5-1.9,5.3,1.9,6.9c0.7,0.3,1.5,0.7,2.3,0.7
		c1.3,0.1,2.7,2.3,3.9,0.1C131.1,174.7,131.6,173.1,132.2,171.5z"/>
	<path fill="#EAE6E6" d="M120,179.6c0,1.1-1,1-1.5,1.1c-1.3,0.3-1.7-1-2-1.8c-0.3-1.2,1-1.1,1.7-1.2
		C119.7,177.4,119.1,179.2,120,179.6z"/>
	<path fill="#EAE6E6" d="M66.8,69.8c-1.8-2.6-3.9-1.3-6-0.6c-0.8,0.3-1.6,1-2.5,1.1c-3.5,0.3-3.8,2.3-2.7,5c-2.9-2.5-2.9-4,0.2-5.3
		c2.4-1.1,5-1.9,7.4-2.9C65.9,66.1,66.9,67.2,66.8,69.8z"/>
	<path fill="#EAE6E6" d="M56.2,77.2c1,1.3,2.2,1.5,3.8,1c0.9-0.3,1.9-1.4,3.1-0.3c-1.4,0.6-2.9,1.4-4.4,1.9
		C56.2,80.7,55.8,79.3,56.2,77.2z"/>
	<path fill="#EAE6E6" d="M67.4,76c0.6-1.7-1.2-3.3,0-5c1.1,0.8,1.2,2.1,1.6,3.2C69.5,75.8,68.5,76,67.4,76z"/>
	<path fill="#EAE6E6" d="M64.3,77.3c0.3-1.3,0.8-1.6,1.9-0.6C65.7,77.3,64.9,77.2,64.3,77.3z"/>
</g>
</svg>
