<?xml version="1.0" encoding="utf-8"?>
<!-- Generator: Adobe Illustrator 18.0.0, SVG Export Plug-In . SVG Version: 6.00 Build 0)  -->
<!DOCTYPE svg PUBLIC "-//W3C//DTD SVG 1.1//EN" "http://www.w3.org/Graphics/SVG/1.1/DTD/svg11.dtd">
<svg version="1.1"
	 id="Layer_1" xmlns:rdf="http://www.w3.org/1999/02/22-rdf-syntax-ns#" xmlns:cc="http://creativecommons.org/ns#" xmlns:dc="http://purl.org/dc/elements/1.1/"
	 xmlns="http://www.w3.org/2000/svg" xmlns:xlink="http://www.w3.org/1999/xlink" x="0px" y="0px" viewBox="168.8 168.8 70 70"
	 enable-background="new 168.8 168.8 70 70" xml:space="preserve">
<g>
	<path fill="#FFFFFF" d="M203.8,185.6c-9.9,0-18.1,8-18.1,18.1s8,18.1,18.1,18.1c10,0,18.1-8.2,18.1-18.1S213.7,185.6,203.8,185.6z
		 M203.8,215.2c-6.4,0-11.6-5.2-11.6-11.6s5.2-11.6,11.6-11.6c6.4,0,11.6,5.2,11.6,11.6S210.2,215.2,203.8,215.2z"/>
	<circle fill="#FFFFFF" cx="222.6" cy="185.1" r="4.1"/>
	<path fill="#FFFFFF" d="M233.2,174.6c-3.7-3.8-8.9-5.8-14.8-5.8h-29.1c-12.3,0-20.5,8.2-20.5,20.5v28.9c0,6.1,2,11.3,5.9,15.1
		c3.8,3.7,8.9,5.5,14.7,5.5h28.8c6.1,0,11.1-2,14.8-5.5c3.8-3.7,5.8-8.9,5.8-15v-29.1C238.8,183.3,236.8,178.2,233.2,174.6z
		 M232.6,218.3c0,4.4-1.6,7.9-4.1,10.3c-2.5,2.4-6.1,3.7-10.3,3.7h-28.8c-4.2,0-7.8-1.3-10.3-3.7c-2.5-2.5-3.8-6.1-3.8-10.4v-28.9
		c0-4.2,1.3-7.8,3.8-10.3c2.4-2.4,6.1-3.7,10.3-3.7h29.1c4.2,0,7.8,1.3,10.3,3.8c2.4,2.5,3.8,6.1,3.8,10.2V218.3L232.6,218.3z"/>
</g>
</svg>
