<?xml version="1.0" encoding="utf-8"?>
<!-- Generator: Adobe Illustrator 18.0.0, SVG Export Plug-In . SVG Version: 6.00 Build 0)  -->
<!DOCTYPE svg PUBLIC "-//W3C//DTD SVG 1.1//EN" "http://www.w3.org/Graphics/SVG/1.1/DTD/svg11.dtd">
<svg version="1.1"
	 id="Layer_1" xmlns:cc="http://creativecommons.org/ns#" xmlns:dc="http://purl.org/dc/elements/1.1/" xmlns:rdf="http://www.w3.org/1999/02/22-rdf-syntax-ns#"
	 xmlns="http://www.w3.org/2000/svg" xmlns:xlink="http://www.w3.org/1999/xlink" x="0px" y="0px" viewBox="0 0 408 408"
	 enable-background="new 0 0 408 408" xml:space="preserve">
<g transform="translate(0 -189.05)">
	<g transform="matrix(5.5843 0 0 -5.5843 67.024 250.89)">
		<path fill="#FFFFFF" d="M33.4-30.8L29-35.1c-3.4-2.5-7.5-3.9-12-3.9C5.7-39-3.5-29.8-3.5-18.4C-3.5-7.1,5.7,2.1,17,2.1
			c11.3,0,20.5-9.2,20.5-20.6C37.5-23.1,35.9-27.3,33.4-30.8 M59.5-54.3l-19,18.5c3.6,4.9,5.8,10.9,5.8,17.5c0,16.1-13,29.1-29,29.1
			c-16,0-29-13-29-29.1c0-16.1,13-29.1,29-29.1c6.4,0,12.3,2.1,17,5.6l19.2-18.6c1.7-1.7,4.4-1.6,6.1,0.1
			C61.2-58.7,61.2-55.9,59.5-54.3"/>
	</g>
</g>
</svg>
