<?xml version="1.0" encoding="UTF-8"?>
<!-- Created with Inkscape (http://www.inkscape.org/) -->
<svg width="408" height="408" version="1.1" viewBox="0 0 107.95 107.95" xmlns="http://www.w3.org/2000/svg" xmlns:cc="http://creativecommons.org/ns#" xmlns:dc="http://purl.org/dc/elements/1.1/" xmlns:rdf="http://www.w3.org/1999/02/22-rdf-syntax-ns#">
 <metadata>
  <rdf:RDF>
   <cc:Work rdf:about="">
    <dc:format>image/svg+xml</dc:format>
    <dc:type rdf:resource="http://purl.org/dc/dcmitype/StillImage"/>
    <dc:title/>
   </cc:Work>
  </rdf:RDF>
 </metadata>
 <g transform="translate(0 -189.05)">
  <g transform="matrix(5.5843 0 0 -5.5843 67.024 250.89)">
   <path d="m0 0-1.146-1.135c-0.894-0.653-1.994-1.039-3.184-1.039-2.989 0-5.413 2.435-5.413 5.439 0 3.005 2.424 5.44 5.413 5.44 2.99 0 5.414-2.435 5.414-5.44 0-1.225-0.404-2.356-1.084-3.265m6.909-6.218-5.035 4.886c0.964 1.289 1.535 2.891 1.535 4.628 0 4.256-3.434 7.707-7.67 7.707-4.237 0-7.671-3.451-7.671-7.707 0-4.257 3.434-7.708 7.671-7.708 1.686 0 3.244 0.547 4.51 1.473l5.077-4.926c0.455-0.442 1.174-0.427 1.611 0.028 0.441 0.458 0.425 1.18-0.028 1.619" fill="#555d68"/>
  </g>
 </g>
</svg>
