<?xml version="1.0" encoding="utf-8"?>
<!-- Generator: Adobe Illustrator 18.0.0, SVG Export Plug-In . SVG Version: 6.00 Build 0)  -->
<!DOCTYPE svg PUBLIC "-//W3C//DTD SVG 1.1//EN" "http://www.w3.org/Graphics/SVG/1.1/DTD/svg11.dtd">
<svg version="1.1"
	 id="Layer_1" xmlns:rdf="http://www.w3.org/1999/02/22-rdf-syntax-ns#" xmlns:cc="http://creativecommons.org/ns#" xmlns:dc="http://purl.org/dc/elements/1.1/"
	 xmlns="http://www.w3.org/2000/svg" xmlns:xlink="http://www.w3.org/1999/xlink" x="0px" y="0px" viewBox="178.8 187.9 50 30.6"
	 enable-background="new 178.8 187.9 50 30.6" xml:space="preserve">
<g>
	<path fill="#7D97AD" d="M178.8,203.2c5.5-6.7,11.6-12.4,20.2-14.7c5-1.3,9.9-0.5,14.5,1.7c6.2,3,11.1,7.5,15.3,13
		c-0.6,0.7-1.1,1.4-1.7,2.1c-3.6,4.2-7.7,7.8-12.6,10.4c-7,3.7-14,3.8-21,0.2C187.7,212.9,182.9,208.5,178.8,203.2z M182.2,203.2
		c4,4.7,8.5,8.6,14,11c5.2,2.3,10.3,2.2,15.4-0.1c4.1-1.8,7.6-4.6,10.8-7.7c1-1,1.9-2.1,2.9-3.1c-3.7-4.3-7.7-7.9-12.6-10.4
		c-3.6-1.8-7.4-2.8-11.5-2.1C193.2,192.2,187.6,197.4,182.2,203.2z"/>
	<path fill="#7D97AD" d="M203.8,192.5c5.9,0,10.7,4.8,10.7,10.8c0,5.8-4.9,10.6-10.7,10.6c-5.9,0-10.6-4.8-10.7-10.8
		C193.1,197.4,198,192.5,203.8,192.5z M203.8,211.4c4.4,0,8.2-3.7,8.2-8.1c0-4.5-3.7-8.2-8.2-8.2c-4.4,0-8.2,3.7-8.2,8
		C195.6,207.6,199.3,211.4,203.8,211.4z"/>
</g>
</svg>
