<?xml version="1.0" encoding="UTF-8"?>
<!-- Created with Inkscape (http://www.inkscape.org/) -->
<svg width="408" height="408" version="1.1" viewBox="0 0 107.95 107.95" xmlns="http://www.w3.org/2000/svg" xmlns:cc="http://creativecommons.org/ns#" xmlns:dc="http://purl.org/dc/elements/1.1/" xmlns:rdf="http://www.w3.org/1999/02/22-rdf-syntax-ns#">
 <metadata>
  <rdf:RDF>
   <cc:Work rdf:about="">
    <dc:format>image/svg+xml</dc:format>
    <dc:type rdf:resource="http://purl.org/dc/dcmitype/StillImage"/>
    <dc:title/>
   </cc:Work>
  </rdf:RDF>
 </metadata>
 <g transform="translate(0,-189.05)">
  <g transform="matrix(4.9175 0 0 -4.9175 103.19 213.96)">
   <path d="m0 0c-0.097-0.83-0.238-1.651-0.528-2.441-0.177-0.481-0.356-0.963-0.629-1.403-0.198-0.317-0.493-0.41-0.781-0.262-0.276 0.142-0.381 0.455-0.215 0.777 0.463 0.902 0.797 1.844 0.94 2.845 0.111 0.774 0.201 1.547-0.19 2.286-0.39 0.737-1.196 1.166-2.003 1.041-0.857-0.132-1.56-0.806-1.698-1.614-0.107-0.632 0.085-1.234 0.172-1.846 0.028-0.198 0.082-0.393 0.102-0.592 0.036-0.355-0.16-0.623-0.469-0.665-0.288-0.039-0.582 0.187-0.648 0.522-0.117 0.589-0.217 1.18-0.299 1.776-0.128 0.929 0.117 1.743 0.711 2.458 0.495 0.595 1.163 0.91 1.917 1.064h1.024c0.855-0.203 1.57-0.603 2.055-1.351 0.291-0.449 0.429-0.948 0.539-1.458z" fill="none" stroke="#999" stroke-miterlimit="10" stroke-width=".528"/>
  </g>
  <g transform="matrix(4.9175 0 0 -4.9175 90.103 235.77)">
   <path d="m0 0c-0.01-1.192 0.166-0.689-1.003-1.845-2.153-2.129-4.322-4.241-6.485-6.359-0.668-0.654-1.361-0.658-2.024-9e-3 -1.569 1.535-3.12 3.088-4.711 4.6-0.616 0.586-0.646 1.439-0.012 2.047 2.29 2.199 4.558 4.42 6.798 6.668 0.447 0.448 0.918 0.625 1.519 0.644 0.57 0.018 1.133-0.077 1.701-0.063 0.186 4e-3 0.266-0.091 0.262-0.27-8e-3 -0.402 0.056-0.798 0.127-1.192 0.044-0.244-0.042-0.456-0.119-0.678-0.245-0.7 0.155-1.447 0.883-1.673 0.709-0.22 1.47 0.161 1.678 0.863 0.155 0.519 0.034 0.974-0.358 1.381-0.351 0.363-0.266 0.845-0.259 1.295 2e-3 0.097 0.096 0.108 0.183 0.098 0.169-0.019 0.34-0.026 0.508-0.053 0.863-0.141 0.92-0.164 1.014-1.012 0.145-1.303 0.32-2.606 0.298-4.442z" fill="none" stroke="#999" stroke-miterlimit="10" stroke-width=".528"/>
  </g>
 </g>
</svg>
