<?xml version="1.0" encoding="UTF-8"?>
<!-- Generator: Adobe Illustrator 16.0.0, SVG Export Plug-In . SVG Version: 6.00 Build 0)  -->
<svg width="459.32px" height="459.32px" enable-background="new 0 0 459.325 459.325" version="1.1" viewBox="0 0 459.32 459.32" xml:space="preserve" xmlns="http://www.w3.org/2000/svg" xmlns:cc="http://creativecommons.org/ns#" xmlns:dc="http://purl.org/dc/elements/1.1/" xmlns:rdf="http://www.w3.org/1999/02/22-rdf-syntax-ns#"><metadata><rdf:RDF><cc:Work rdf:about=""><dc:format>image/svg+xml</dc:format><dc:type rdf:resource="http://purl.org/dc/dcmitype/StillImage"/><dc:title/></cc:Work></rdf:RDF></metadata><g fill="#fff"><path d="m459.32 229.67c0 22.201-17.992 40.193-40.205 40.193h-149.26v149.27c0 22.207-17.998 40.199-40.196 40.193-11.101 0-21.149-4.492-28.416-11.763-7.276-7.281-11.774-17.324-11.769-28.419l-6e-3 -149.29h-149.28c-11.094 0-21.134-4.492-28.416-11.774-7.264-7.264-11.759-17.312-11.759-28.413-6e-3 -22.197 17.986-40.193 40.196-40.193h149.27v-149.27c0-22.204 18.002-40.202 40.202-40.202 22.192 6e-3 40.178 17.986 40.19 40.187v149.29h149.28c22.196 0.012 40.165 17.996 40.176 40.193z" fill="#fff"/></g></svg>
