<?xml version="1.0" encoding="utf-8"?>
<!-- Svg Vector Icons : http://www.onlinewebfonts.com/icon -->
<!DOCTYPE svg PUBLIC "-//W3C//DTD SVG 1.1//EN" "http://www.w3.org/Graphics/SVG/1.1/DTD/svg11.dtd">
<svg version="1.1" xmlns="http://www.w3.org/2000/svg" xmlns:xlink="http://www.w3.org/1999/xlink" x="0px" y="0px" viewBox="0 0 1000 1000" enable-background="new 0 0 1000 1000" xml:space="preserve">
<metadata> Svg Vector Icons : http://www.onlinewebfonts.com/icon </metadata>
<g><path d="M413.8,844.8C191.1,844.8,10,663.6,10,440.9C10,218.2,191.1,37.1,413.8,37.1c222.7,0,403.8,181.2,403.8,403.8C817.7,663.6,636.5,844.8,413.8,844.8z M413.8,96.2c-190.1,0-344.7,154.6-344.7,344.7s154.6,344.7,344.7,344.7c190.1,0,344.7-154.6,344.7-344.7C758.6,250.8,603.9,96.2,413.8,96.2z"/><path d="M930.8,962.9c-13.6,0-27.4-4.7-38.6-14.4L675.6,761.4c-24.7-21.3-27.4-58.6-6.1-83.3c21.3-24.7,58.6-27.5,83.3-6.1l216.7,187.1c24.7,21.3,27.4,58.6,6.1,83.3C963.9,956,947.5,962.9,930.8,962.9z"/></g>
</svg>