<?xml version="1.0" encoding="utf-8"?>
<!-- Generator: Adobe Illustrator 18.0.0, SVG Export Plug-In . SVG Version: 6.00 Build 0)  -->
<!DOCTYPE svg PUBLIC "-//W3C//DTD SVG 1.1//EN" "http://www.w3.org/Graphics/SVG/1.1/DTD/svg11.dtd">
<svg version="1.1" id="Layer_1" xmlns="http://www.w3.org/2000/svg" xmlns:xlink="http://www.w3.org/1999/xlink" x="0px" y="0px"
	 viewBox="0 0 150 96.7" enable-background="new 0 0 150 96.7" xml:space="preserve">
<g>
	<path d="M73.3,0c26.9,0.6,47.7,10.6,64.2,29.3c4.3,4.9,7.7,10.6,11.5,16c1.3,1.8,1.3,3.8,0.2,5.7C138.6,69.4,124,83.6,103.9,91
		c-29.2,10.8-56.1,5.9-80.5-13.1c-3.2-2.5-6-5.4-8.8-8.2c-2.5-2.5-2.5-5.8-0.2-8c2.3-2.2,5.5-1.9,8,0.7C32.7,73.3,45,80.9,59.8,84.1
		c23,4.9,43.5-0.8,61.5-15.7c6.5-5.4,11.8-11.8,16.4-18.9c0.5-0.7,0.7-1.3,0.1-2.1C126.4,29.7,111,17.2,90.2,12.6
		C67.3,7.5,46.9,13.2,28.9,28C21.6,34,15.8,41.2,11,49.2c-0.3,0.5-0.6,1-0.8,1.4c-1.8,2.9-4.9,3.8-7.6,2.2c-2.7-1.6-3.3-4.8-1.6-7.7
		c3.9-6.8,8.4-13,13.8-18.6C27.6,13.2,43,4.5,61.3,1.3C65.8,0.5,70.5,0.3,73.3,0z"/>
	<path d="M48.2,48.2c0-14.8,12.1-26.7,27-26.7c14.7,0.1,26.6,12.1,26.6,26.9c0,14.8-12.2,26.7-27,26.7C60.1,75,48.1,63,48.2,48.2z
		 M91,48.4c0-8.8-7.1-16.1-15.8-16.2c-9.1-0.1-16.3,7.1-16.3,16.2c0,8.7,7.2,16,16,16C83.7,64.4,91,57.2,91,48.4z"/>
</g>
</svg>
