<?xml version="1.0" encoding="utf-8"?>
<!-- Generator: Adobe Illustrator 18.0.0, SVG Export Plug-In . SVG Version: 6.00 Build 0)  -->
<!DOCTYPE svg PUBLIC "-//W3C//DTD SVG 1.1//EN" "http://www.w3.org/Graphics/SVG/1.1/DTD/svg11.dtd">
<svg version="1.1"
	 id="Layer_1" xmlns:rdf="http://www.w3.org/1999/02/22-rdf-syntax-ns#" xmlns:cc="http://creativecommons.org/ns#" xmlns:dc="http://purl.org/dc/elements/1.1/"
	 xmlns="http://www.w3.org/2000/svg" xmlns:xlink="http://www.w3.org/1999/xlink" x="0px" y="0px" viewBox="178.8 2620.1 1200 736"
	 enable-background="new 178.8 2620.1 1200 736" xml:space="preserve">
<g>
	<path fill="#FFFFFF" d="M178.8,2987.9c132-160.8,278.4-297.6,484.8-352.8c120-31.2,237.6-12,348,40.8c148.8,72,266.4,180,367.2,312
		c-14.4,16.8-26.4,33.6-40.8,50.4c-86.4,100.8-184.8,187.2-302.4,249.6c-168,88.8-336,91.2-504,4.8
		C392.4,3220.7,277.2,3115.1,178.8,2987.9z M260.4,2987.9c96,112.8,204,206.4,336,264c124.8,55.2,247.2,52.8,369.6-2.4
		c98.4-43.2,182.4-110.4,259.2-184.8c24-24,45.6-50.4,69.6-74.4c-88.8-103.2-184.8-189.6-302.4-249.6
		c-86.4-43.2-177.6-67.2-276-50.4C524.4,2723.9,390,2848.7,260.4,2987.9z"/>
	<path fill="#FFFFFF" d="M778.8,2731.1c141.6,0,256.8,115.2,256.8,259.2c0,139.2-117.6,254.4-256.8,254.4
		c-141.6,0-254.4-115.2-256.8-259.2C522,2848.7,639.6,2731.1,778.8,2731.1z M778.8,3184.7c105.6,0,196.8-88.8,196.8-194.4
		c0-108-88.8-196.8-196.8-196.8c-105.6,0-196.8,88.8-196.8,192C582,3093.5,670.8,3184.7,778.8,3184.7z"/>
</g>
</svg>
